<?xml version="1.0" standalone="no"?>
<!DOCTYPE svg PUBLIC "-//W3C//DTD SVG 20010904//EN"
 "http://www.w3.org/TR/2001/REC-SVG-20010904/DTD/svg10.dtd">
<svg version="1.0" xmlns="http://www.w3.org/2000/svg"
 width="211.000000pt" height="211.000000pt" viewBox="0 0 211.000000 211.000000"
 preserveAspectRatio="xMidYMid meet">
<metadata>
Created by potrace 1.11, written by Peter Selinger 2001-2013
</metadata>
<g transform="translate(0.000000,211.000000) scale(0.100000,-0.100000)"
fill="#000000" stroke="none">
<path d="M580 2103 c-166 -25 -292 -78 -380 -159 -52 -49 -107 -130 -114 -171
-2 -10 -9 -38 -16 -62 -12 -47 -15 -163 -5 -226 12 -76 70 -177 143 -252 91
-92 189 -156 402 -261 303 -149 409 -218 459 -298 25 -38 27 -50 24 -118 -4
-93 -27 -149 -82 -199 -49 -44 -77 -59 -165 -86 -174 -54 -516 -29 -703 50
l-42 18 -11 -42 c-6 -23 -20 -77 -31 -120 -11 -44 -19 -80 -17 -82 10 -10 138
-46 233 -66 163 -35 469 -34 635 2 185 39 349 151 413 283 41 84 50 138 52
331 2 99 3 185 4 191 1 8 39 12 119 13 64 0 126 3 137 5 11 2 40 7 65 10 156
22 280 94 325 189 24 52 41 147 40 222 -5 282 -119 386 -455 411 -103 8 -449
12 -491 6 l-25 -4 0 -339 c1 -186 -2 -339 -7 -339 -4 0 -25 11 -46 25 -22 13
-95 51 -163 85 -338 167 -396 200 -474 276 -25 24 -56 68 -69 96 -43 93 -20
230 48 290 34 30 116 66 177 77 120 22 395 2 589 -43 33 -8 63 -11 65 -7 6 8
34 164 39 216 2 22 -37 33 -213 61 -96 15 -400 26 -460 17z m964 -554 c95 -2
190 -19 231 -41 74 -39 98 -99 98 -239 1 -82 -3 -103 -24 -145 -46 -94 -134
-127 -339 -128 l-135 -1 0 274 c0 262 1 274 19 281 11 4 31 6 45 4 14 -2 62
-4 105 -5z"/>
</g>
</svg>
